<mxfile host="app.diagrams.net" modified="2024-07-17T11:33:03.722Z" agent="Mozilla/5.0 (Windows NT 10.0; Win64; x64) AppleWebKit/537.36 (KHTML, like Gecko) Chrome/126.0.0.0 Safari/537.36 Edg/126.0.0.0" etag="bsnixw8uU_T_db_lt1IE" version="24.7.0" type="device">
  <diagram name="PÃ¡gina-1" id="4owX2f2_gQE0-vy4Nwpa">
    <mxGraphModel dx="2020" dy="1023" grid="1" gridSize="10" guides="1" tooltips="1" connect="1" arrows="1" fold="1" page="1" pageScale="1" pageWidth="827" pageHeight="1169" math="0" shadow="0">
      <root>
        <mxCell id="0" />
        <mxCell id="1" parent="0" />
        <mxCell id="oezHuCuassYHEXN5sCn5-32" value="" style="rounded=0;whiteSpace=wrap;html=1;" parent="1" vertex="1">
          <mxGeometry x="240" y="20" width="760" height="1090" as="geometry" />
        </mxCell>
        <mxCell id="gEz15ZpdTDlsJ69ZWDqB-34" style="edgeStyle=entityRelationEdgeStyle;rounded=0;orthogonalLoop=1;jettySize=auto;html=1;startArrow=none;startFill=0;endArrow=none;endFill=0;" edge="1" parent="1" source="gEz15ZpdTDlsJ69ZWDqB-30" target="oezHuCuassYHEXN5sCn5-29">
          <mxGeometry relative="1" as="geometry" />
        </mxCell>
        <mxCell id="oezHuCuassYHEXN5sCn5-2" value="See achievements tree" style="ellipse;whiteSpace=wrap;html=1;" parent="1" vertex="1">
          <mxGeometry x="392" y="500" width="120" height="80" as="geometry" />
        </mxCell>
        <mxCell id="oezHuCuassYHEXN5sCn5-3" value="See experience level" style="ellipse;whiteSpace=wrap;html=1;" parent="1" vertex="1">
          <mxGeometry x="272" y="564" width="120" height="80" as="geometry" />
        </mxCell>
        <mxCell id="oezHuCuassYHEXN5sCn5-4" value="Check rankings (Friends, regional and global)" style="ellipse;whiteSpace=wrap;html=1;" parent="1" vertex="1">
          <mxGeometry x="392" y="620" width="120" height="80" as="geometry" />
        </mxCell>
        <mxCell id="oezHuCuassYHEXN5sCn5-21" style="rounded=0;orthogonalLoop=1;jettySize=auto;html=1;entryX=0;entryY=0.5;entryDx=0;entryDy=0;edgeStyle=orthogonalEdgeStyle;curved=1;endArrow=none;endFill=0;" parent="1" source="oezHuCuassYHEXN5sCn5-10" target="oezHuCuassYHEXN5sCn5-3" edge="1">
          <mxGeometry relative="1" as="geometry">
            <Array as="points">
              <mxPoint x="170" y="540" />
              <mxPoint x="170" y="604" />
            </Array>
          </mxGeometry>
        </mxCell>
        <mxCell id="oezHuCuassYHEXN5sCn5-22" style="rounded=0;orthogonalLoop=1;jettySize=auto;html=1;entryX=0;entryY=0.5;entryDx=0;entryDy=0;edgeStyle=orthogonalEdgeStyle;curved=1;endArrow=none;endFill=0;" parent="1" source="oezHuCuassYHEXN5sCn5-10" target="oezHuCuassYHEXN5sCn5-4" edge="1">
          <mxGeometry relative="1" as="geometry">
            <Array as="points">
              <mxPoint x="160" y="540" />
              <mxPoint x="160" y="660" />
            </Array>
          </mxGeometry>
        </mxCell>
        <mxCell id="gEz15ZpdTDlsJ69ZWDqB-9" style="edgeStyle=orthogonalEdgeStyle;rounded=0;orthogonalLoop=1;jettySize=auto;html=1;entryX=0;entryY=0.5;entryDx=0;entryDy=0;curved=1;endArrow=none;endFill=0;" edge="1" parent="1" source="oezHuCuassYHEXN5sCn5-10" target="gEz15ZpdTDlsJ69ZWDqB-4">
          <mxGeometry relative="1" as="geometry" />
        </mxCell>
        <mxCell id="gEz15ZpdTDlsJ69ZWDqB-10" style="edgeStyle=orthogonalEdgeStyle;rounded=0;orthogonalLoop=1;jettySize=auto;html=1;endArrow=none;endFill=0;curved=1;entryX=0;entryY=0.5;entryDx=0;entryDy=0;" edge="1" parent="1" source="oezHuCuassYHEXN5sCn5-10" target="gEz15ZpdTDlsJ69ZWDqB-7">
          <mxGeometry relative="1" as="geometry">
            <Array as="points">
              <mxPoint x="180" y="540" />
              <mxPoint x="180" y="305" />
            </Array>
          </mxGeometry>
        </mxCell>
        <mxCell id="gEz15ZpdTDlsJ69ZWDqB-14" style="edgeStyle=orthogonalEdgeStyle;rounded=0;orthogonalLoop=1;jettySize=auto;html=1;entryX=0;entryY=0.5;entryDx=0;entryDy=0;endArrow=none;endFill=0;curved=1;" edge="1" parent="1" source="oezHuCuassYHEXN5sCn5-10" target="gEz15ZpdTDlsJ69ZWDqB-11">
          <mxGeometry relative="1" as="geometry" />
        </mxCell>
        <mxCell id="gEz15ZpdTDlsJ69ZWDqB-15" style="edgeStyle=orthogonalEdgeStyle;rounded=0;orthogonalLoop=1;jettySize=auto;html=1;curved=1;" edge="1" parent="1" source="oezHuCuassYHEXN5sCn5-10" target="oezHuCuassYHEXN5sCn5-2">
          <mxGeometry relative="1" as="geometry" />
        </mxCell>
        <mxCell id="oezHuCuassYHEXN5sCn5-10" value="Loged User" style="shape=umlActor;verticalLabelPosition=bottom;verticalAlign=top;html=1;outlineConnect=0;" parent="1" vertex="1">
          <mxGeometry x="20" y="510" width="30" height="60" as="geometry" />
        </mxCell>
        <mxCell id="oezHuCuassYHEXN5sCn5-29" value="Unsigned User" style="shape=umlActor;verticalLabelPosition=bottom;verticalAlign=top;html=1;outlineConnect=0;" parent="1" vertex="1">
          <mxGeometry x="1052" y="930" width="30" height="60" as="geometry" />
        </mxCell>
        <mxCell id="gEz15ZpdTDlsJ69ZWDqB-12" value="" style="group" vertex="1" connectable="0" parent="1">
          <mxGeometry x="272" y="730" width="340" height="340" as="geometry" />
        </mxCell>
        <mxCell id="gEz15ZpdTDlsJ69ZWDqB-4" value="&lt;p style=&quot;margin:0px;margin-top:4px;text-align:center;&quot;&gt;&lt;b&gt;Friends&lt;/b&gt;&lt;/p&gt;&lt;hr size=&quot;1&quot; style=&quot;border-style:solid;&quot;&gt;&lt;div style=&quot;height:2px;&quot;&gt;&lt;/div&gt;" style="verticalAlign=top;align=left;overflow=fill;html=1;whiteSpace=wrap;" vertex="1" parent="gEz15ZpdTDlsJ69ZWDqB-12">
          <mxGeometry width="340" height="340" as="geometry" />
        </mxCell>
        <mxCell id="oezHuCuassYHEXN5sCn5-5" value="Search other&lt;div&gt;people&#39;s profiles&lt;/div&gt;" style="ellipse;whiteSpace=wrap;html=1;" parent="gEz15ZpdTDlsJ69ZWDqB-12" vertex="1">
          <mxGeometry x="209" y="90" width="120" height="80" as="geometry" />
        </mxCell>
        <mxCell id="oezHuCuassYHEXN5sCn5-34" style="edgeStyle=none;rounded=0;orthogonalLoop=1;jettySize=auto;html=1;exitX=1;exitY=0.5;exitDx=0;exitDy=0;endArrow=open;endFill=0;endSize=12;dashed=1;" parent="gEz15ZpdTDlsJ69ZWDqB-12" source="oezHuCuassYHEXN5sCn5-6" target="oezHuCuassYHEXN5sCn5-5" edge="1">
          <mxGeometry relative="1" as="geometry" />
        </mxCell>
        <mxCell id="oezHuCuassYHEXN5sCn5-35" value="&amp;lt;&amp;lt;include&amp;gt;&amp;gt;" style="edgeLabel;html=1;align=center;verticalAlign=middle;resizable=0;points=[];" parent="oezHuCuassYHEXN5sCn5-34" vertex="1" connectable="0">
          <mxGeometry x="-0.2719" relative="1" as="geometry">
            <mxPoint x="37" y="-5" as="offset" />
          </mxGeometry>
        </mxCell>
        <mxCell id="oezHuCuassYHEXN5sCn5-38" style="edgeStyle=none;rounded=0;orthogonalLoop=1;jettySize=auto;html=1;exitX=1;exitY=0.5;exitDx=0;exitDy=0;endSize=12;endArrow=open;endFill=0;dashed=1;" parent="gEz15ZpdTDlsJ69ZWDqB-12" source="oezHuCuassYHEXN5sCn5-7" target="oezHuCuassYHEXN5sCn5-5" edge="1">
          <mxGeometry relative="1" as="geometry" />
        </mxCell>
        <mxCell id="oezHuCuassYHEXN5sCn5-39" value="&amp;lt;&amp;lt;include&amp;gt;&amp;gt;" style="edgeLabel;html=1;align=center;verticalAlign=middle;resizable=0;points=[];" parent="oezHuCuassYHEXN5sCn5-38" vertex="1" connectable="0">
          <mxGeometry x="-0.1206" y="-3" relative="1" as="geometry">
            <mxPoint x="29" y="6" as="offset" />
          </mxGeometry>
        </mxCell>
        <mxCell id="gEz15ZpdTDlsJ69ZWDqB-38" style="edgeStyle=orthogonalEdgeStyle;rounded=0;orthogonalLoop=1;jettySize=auto;html=1;exitX=0;exitY=0.5;exitDx=0;exitDy=0;entryX=0;entryY=0.5;entryDx=0;entryDy=0;endArrow=none;endFill=0;curved=1;" edge="1" parent="gEz15ZpdTDlsJ69ZWDqB-12" source="oezHuCuassYHEXN5sCn5-7" target="gEz15ZpdTDlsJ69ZWDqB-4">
          <mxGeometry relative="1" as="geometry">
            <Array as="points">
              <mxPoint x="35" y="180" />
              <mxPoint x="35" y="170" />
            </Array>
          </mxGeometry>
        </mxCell>
        <mxCell id="oezHuCuassYHEXN5sCn5-7" value="Send friend request" style="ellipse;whiteSpace=wrap;html=1;" parent="gEz15ZpdTDlsJ69ZWDqB-12" vertex="1">
          <mxGeometry x="55" y="140" width="120" height="80" as="geometry" />
        </mxCell>
        <mxCell id="gEz15ZpdTDlsJ69ZWDqB-40" style="edgeStyle=orthogonalEdgeStyle;rounded=0;orthogonalLoop=1;jettySize=auto;html=1;exitX=0;exitY=0.5;exitDx=0;exitDy=0;entryX=0;entryY=0.5;entryDx=0;entryDy=0;endArrow=none;endFill=0;curved=1;" edge="1" parent="gEz15ZpdTDlsJ69ZWDqB-12" source="oezHuCuassYHEXN5sCn5-8" target="gEz15ZpdTDlsJ69ZWDqB-4">
          <mxGeometry relative="1" as="geometry" />
        </mxCell>
        <mxCell id="oezHuCuassYHEXN5sCn5-8" value="Delete friend" style="ellipse;whiteSpace=wrap;html=1;" parent="gEz15ZpdTDlsJ69ZWDqB-12" vertex="1">
          <mxGeometry x="55" y="240" width="120" height="80" as="geometry" />
        </mxCell>
        <mxCell id="gEz15ZpdTDlsJ69ZWDqB-36" style="edgeStyle=orthogonalEdgeStyle;rounded=0;orthogonalLoop=1;jettySize=auto;html=1;exitX=0;exitY=0.5;exitDx=0;exitDy=0;entryX=0;entryY=0.5;entryDx=0;entryDy=0;endArrow=none;endFill=0;curved=1;" edge="1" parent="gEz15ZpdTDlsJ69ZWDqB-12" source="oezHuCuassYHEXN5sCn5-6" target="gEz15ZpdTDlsJ69ZWDqB-4">
          <mxGeometry relative="1" as="geometry" />
        </mxCell>
        <mxCell id="oezHuCuassYHEXN5sCn5-6" value="See other&lt;div&gt;people&#39;s profiles&lt;/div&gt;" style="ellipse;whiteSpace=wrap;html=1;" parent="gEz15ZpdTDlsJ69ZWDqB-12" vertex="1">
          <mxGeometry x="55" y="40" width="120" height="80" as="geometry" />
        </mxCell>
        <mxCell id="gEz15ZpdTDlsJ69ZWDqB-13" value="" style="group" vertex="1" connectable="0" parent="1">
          <mxGeometry x="487" y="140" width="340" height="330" as="geometry" />
        </mxCell>
        <mxCell id="gEz15ZpdTDlsJ69ZWDqB-7" value="&lt;p style=&quot;margin:0px;margin-top:4px;text-align:center;&quot;&gt;&lt;b&gt;Stats&lt;/b&gt;&lt;/p&gt;&lt;hr size=&quot;1&quot; style=&quot;border-style:solid;&quot;&gt;&lt;div style=&quot;height:2px;&quot;&gt;&lt;/div&gt;" style="verticalAlign=top;align=left;overflow=fill;html=1;whiteSpace=wrap;" vertex="1" parent="gEz15ZpdTDlsJ69ZWDqB-13">
          <mxGeometry width="340" height="330" as="geometry" />
        </mxCell>
        <mxCell id="gEz15ZpdTDlsJ69ZWDqB-42" style="edgeStyle=orthogonalEdgeStyle;rounded=0;orthogonalLoop=1;jettySize=auto;html=1;exitX=0;exitY=0.5;exitDx=0;exitDy=0;entryX=0;entryY=0.5;entryDx=0;entryDy=0;endArrow=none;endFill=0;curved=1;" edge="1" parent="gEz15ZpdTDlsJ69ZWDqB-13" source="jxsSj52jUHicI4koxV5U-3" target="gEz15ZpdTDlsJ69ZWDqB-7">
          <mxGeometry relative="1" as="geometry" />
        </mxCell>
        <mxCell id="jxsSj52jUHicI4koxV5U-3" value="Log weight" style="ellipse;whiteSpace=wrap;html=1;" parent="gEz15ZpdTDlsJ69ZWDqB-13" vertex="1">
          <mxGeometry x="53" y="40" width="120" height="80" as="geometry" />
        </mxCell>
        <mxCell id="gEz15ZpdTDlsJ69ZWDqB-44" style="edgeStyle=orthogonalEdgeStyle;rounded=0;orthogonalLoop=1;jettySize=auto;html=1;exitX=0;exitY=0.5;exitDx=0;exitDy=0;entryX=0;entryY=0.5;entryDx=0;entryDy=0;endArrow=none;endFill=0;curved=1;" edge="1" parent="gEz15ZpdTDlsJ69ZWDqB-13" source="jxsSj52jUHicI4koxV5U-4" target="gEz15ZpdTDlsJ69ZWDqB-7">
          <mxGeometry relative="1" as="geometry">
            <Array as="points">
              <mxPoint x="33" y="180" />
              <mxPoint x="33" y="165" />
            </Array>
          </mxGeometry>
        </mxCell>
        <mxCell id="jxsSj52jUHicI4koxV5U-4" value="Log body fat" style="ellipse;whiteSpace=wrap;html=1;" parent="gEz15ZpdTDlsJ69ZWDqB-13" vertex="1">
          <mxGeometry x="53" y="140" width="120" height="80" as="geometry" />
        </mxCell>
        <mxCell id="jxsSj52jUHicI4koxV5U-7" style="edgeStyle=none;rounded=0;orthogonalLoop=1;jettySize=auto;html=1;endArrow=block;endFill=0;endSize=12;" parent="gEz15ZpdTDlsJ69ZWDqB-13" source="jxsSj52jUHicI4koxV5U-5" target="jxsSj52jUHicI4koxV5U-4" edge="1">
          <mxGeometry relative="1" as="geometry" />
        </mxCell>
        <mxCell id="jxsSj52jUHicI4koxV5U-5" value="Log body fat&lt;div&gt;&lt;span style=&quot;background-color: initial;&quot;&gt;m&lt;/span&gt;&lt;span style=&quot;background-color: initial;&quot;&gt;anually&lt;/span&gt;&lt;/div&gt;" style="ellipse;whiteSpace=wrap;html=1;" parent="gEz15ZpdTDlsJ69ZWDqB-13" vertex="1">
          <mxGeometry x="203" y="80" width="120" height="80" as="geometry" />
        </mxCell>
        <mxCell id="jxsSj52jUHicI4koxV5U-9" style="edgeStyle=none;rounded=0;orthogonalLoop=1;jettySize=auto;html=1;endArrow=block;endFill=0;startSize=6;endSize=12;" parent="gEz15ZpdTDlsJ69ZWDqB-13" source="jxsSj52jUHicI4koxV5U-8" target="jxsSj52jUHicI4koxV5U-4" edge="1">
          <mxGeometry relative="1" as="geometry" />
        </mxCell>
        <mxCell id="jxsSj52jUHicI4koxV5U-8" value="Log body fat by a measuring tape" style="ellipse;whiteSpace=wrap;html=1;" parent="gEz15ZpdTDlsJ69ZWDqB-13" vertex="1">
          <mxGeometry x="203" y="190" width="120" height="80" as="geometry" />
        </mxCell>
        <mxCell id="gEz15ZpdTDlsJ69ZWDqB-49" style="edgeStyle=orthogonalEdgeStyle;rounded=0;orthogonalLoop=1;jettySize=auto;html=1;exitX=0;exitY=0.5;exitDx=0;exitDy=0;entryX=0;entryY=0.5;entryDx=0;entryDy=0;endArrow=none;endFill=0;curved=1;" edge="1" parent="gEz15ZpdTDlsJ69ZWDqB-13" source="oezHuCuassYHEXN5sCn5-1" target="gEz15ZpdTDlsJ69ZWDqB-7">
          <mxGeometry relative="1" as="geometry" />
        </mxCell>
        <mxCell id="oezHuCuassYHEXN5sCn5-1" value="See progress graphs&lt;div&gt;(Weight and fat)&lt;/div&gt;" style="ellipse;whiteSpace=wrap;html=1;" parent="gEz15ZpdTDlsJ69ZWDqB-13" vertex="1">
          <mxGeometry x="53" y="240" width="120" height="80" as="geometry" />
        </mxCell>
        <mxCell id="gEz15ZpdTDlsJ69ZWDqB-53" value="" style="group" vertex="1" connectable="0" parent="1">
          <mxGeometry x="277" y="50" width="180" height="230" as="geometry" />
        </mxCell>
        <mxCell id="gEz15ZpdTDlsJ69ZWDqB-11" value="&lt;p style=&quot;margin:0px;margin-top:4px;text-align:center;&quot;&gt;&lt;b&gt;Weekly Streak&lt;/b&gt;&lt;/p&gt;&lt;hr size=&quot;1&quot; style=&quot;border-style:solid;&quot;&gt;&lt;div style=&quot;height:2px;&quot;&gt;&lt;/div&gt;" style="verticalAlign=top;align=left;overflow=fill;html=1;whiteSpace=wrap;" vertex="1" parent="gEz15ZpdTDlsJ69ZWDqB-53">
          <mxGeometry width="180" height="230" as="geometry" />
        </mxCell>
        <mxCell id="jxsSj52jUHicI4koxV5U-1" value="Set weekly goals (Days and routine)" style="ellipse;whiteSpace=wrap;html=1;" parent="gEz15ZpdTDlsJ69ZWDqB-53" vertex="1">
          <mxGeometry x="40" y="40" width="120" height="80" as="geometry" />
        </mxCell>
        <mxCell id="jxsSj52jUHicI4koxV5U-2" value="See weekly streak" style="ellipse;whiteSpace=wrap;html=1;" parent="gEz15ZpdTDlsJ69ZWDqB-53" vertex="1">
          <mxGeometry x="40" y="133" width="120" height="80" as="geometry" />
        </mxCell>
        <mxCell id="gEz15ZpdTDlsJ69ZWDqB-50" style="edgeStyle=orthogonalEdgeStyle;rounded=0;orthogonalLoop=1;jettySize=auto;html=1;exitX=0;exitY=0.5;exitDx=0;exitDy=0;entryX=0;entryY=0.5;entryDx=0;entryDy=0;endArrow=none;endFill=0;curved=1;" edge="1" parent="gEz15ZpdTDlsJ69ZWDqB-53" source="jxsSj52jUHicI4koxV5U-1" target="gEz15ZpdTDlsJ69ZWDqB-11">
          <mxGeometry relative="1" as="geometry">
            <Array as="points">
              <mxPoint x="20" y="80" />
              <mxPoint x="20" y="115" />
            </Array>
          </mxGeometry>
        </mxCell>
        <mxCell id="gEz15ZpdTDlsJ69ZWDqB-52" style="edgeStyle=orthogonalEdgeStyle;rounded=0;orthogonalLoop=1;jettySize=auto;html=1;exitX=0;exitY=0.5;exitDx=0;exitDy=0;entryX=0;entryY=0.5;entryDx=0;entryDy=0;endArrow=none;endFill=0;curved=1;" edge="1" parent="gEz15ZpdTDlsJ69ZWDqB-53" source="jxsSj52jUHicI4koxV5U-2" target="gEz15ZpdTDlsJ69ZWDqB-11">
          <mxGeometry relative="1" as="geometry">
            <Array as="points">
              <mxPoint x="20" y="173" />
              <mxPoint x="20" y="115" />
            </Array>
          </mxGeometry>
        </mxCell>
        <mxCell id="gEz15ZpdTDlsJ69ZWDqB-54" value="" style="group" vertex="1" connectable="0" parent="1">
          <mxGeometry x="680" y="850" width="290" height="220" as="geometry" />
        </mxCell>
        <mxCell id="gEz15ZpdTDlsJ69ZWDqB-30" value="&lt;p style=&quot;margin:0px;margin-top:4px;text-align:center;&quot;&gt;&lt;b&gt;User accounts&lt;/b&gt;&lt;/p&gt;&lt;hr size=&quot;1&quot; style=&quot;border-style:solid;&quot;&gt;&lt;div style=&quot;height:2px;&quot;&gt;&lt;/div&gt;" style="verticalAlign=top;align=left;overflow=fill;html=1;whiteSpace=wrap;" vertex="1" parent="gEz15ZpdTDlsJ69ZWDqB-54">
          <mxGeometry width="290" height="220" as="geometry" />
        </mxCell>
        <mxCell id="oezHuCuassYHEXN5sCn5-27" value="Sign Up" style="ellipse;whiteSpace=wrap;html=1;" parent="gEz15ZpdTDlsJ69ZWDqB-54" vertex="1">
          <mxGeometry x="132" y="40" width="120" height="80" as="geometry" />
        </mxCell>
        <mxCell id="oezHuCuassYHEXN5sCn5-28" value="Log In" style="ellipse;whiteSpace=wrap;html=1;" parent="gEz15ZpdTDlsJ69ZWDqB-54" vertex="1">
          <mxGeometry x="132" y="130" width="120" height="80" as="geometry" />
        </mxCell>
        <mxCell id="xKPTGPFPwrdzNZB8GTj0-1" value="Log In by Google" style="ellipse;whiteSpace=wrap;html=1;" parent="gEz15ZpdTDlsJ69ZWDqB-54" vertex="1">
          <mxGeometry x="10" y="130" width="90" height="80" as="geometry" />
        </mxCell>
        <mxCell id="xKPTGPFPwrdzNZB8GTj0-3" value="Sing Up by Google" style="ellipse;whiteSpace=wrap;html=1;" parent="gEz15ZpdTDlsJ69ZWDqB-54" vertex="1">
          <mxGeometry x="12" y="40" width="86" height="80" as="geometry" />
        </mxCell>
        <mxCell id="gEz15ZpdTDlsJ69ZWDqB-32" style="edgeStyle=orthogonalEdgeStyle;rounded=0;orthogonalLoop=1;jettySize=auto;html=1;exitX=1;exitY=0.5;exitDx=0;exitDy=0;entryX=1;entryY=0.5;entryDx=0;entryDy=0;curved=1;endArrow=none;endFill=0;" edge="1" parent="gEz15ZpdTDlsJ69ZWDqB-54" source="oezHuCuassYHEXN5sCn5-27" target="gEz15ZpdTDlsJ69ZWDqB-30">
          <mxGeometry relative="1" as="geometry">
            <Array as="points">
              <mxPoint x="270" y="80" />
              <mxPoint x="270" y="110" />
            </Array>
          </mxGeometry>
        </mxCell>
        <mxCell id="gEz15ZpdTDlsJ69ZWDqB-33" style="edgeStyle=orthogonalEdgeStyle;rounded=0;orthogonalLoop=1;jettySize=auto;html=1;exitX=1;exitY=0.5;exitDx=0;exitDy=0;entryX=1;entryY=0.5;entryDx=0;entryDy=0;curved=1;endArrow=none;endFill=0;" edge="1" parent="gEz15ZpdTDlsJ69ZWDqB-54" source="oezHuCuassYHEXN5sCn5-28" target="gEz15ZpdTDlsJ69ZWDqB-30">
          <mxGeometry relative="1" as="geometry" />
        </mxCell>
        <mxCell id="xKPTGPFPwrdzNZB8GTj0-2" style="rounded=0;orthogonalLoop=1;jettySize=auto;html=1;endSize=12;endArrow=block;endFill=0;" parent="gEz15ZpdTDlsJ69ZWDqB-54" source="xKPTGPFPwrdzNZB8GTj0-1" target="oezHuCuassYHEXN5sCn5-28" edge="1">
          <mxGeometry relative="1" as="geometry" />
        </mxCell>
        <mxCell id="xKPTGPFPwrdzNZB8GTj0-4" style="rounded=0;orthogonalLoop=1;jettySize=auto;html=1;endArrow=block;endFill=0;endSize=12;" parent="gEz15ZpdTDlsJ69ZWDqB-54" source="xKPTGPFPwrdzNZB8GTj0-3" target="oezHuCuassYHEXN5sCn5-27" edge="1">
          <mxGeometry relative="1" as="geometry" />
        </mxCell>
      </root>
    </mxGraphModel>
  </diagram>
</mxfile>
